<svg id="Layer_1" data-name="Layer 1" xmlns="http://www.w3.org/2000/svg" viewBox="0 0 1562 202.25"><defs><style>.cls-1{fill:#fff;}</style></defs><path class="cls-1" d="M163.86,458c-2-22-7.3-43.6-22.12-60.28-23.13-26-68.16-34.29-91.76,10.73-11.34,21.64-16.63,45.33-21.91,69.07-2.55,11.44-3.51,23.08-6.33,34.5a88.39,88.39,0,0,0-.09,43.33c3.89,15.09,12.57,17.14,23.37,6.21,4-4.09,7-5.12,10.46.94,6.52,11.43,12.78,11.44,20.25.72,2.33-3.35,3.57-8.09,9.36-7.43s5.73,5.66,7.5,9.34c.62,1.29,1,2.69,1.53,4,1.78,4.29,3.63,8.56,9,9.41,5.77.92,8-3.41,10.55-7.23,6.24-9.32,8.23-9.63,16.65-2.55,11.4,9.58,17.27,8,22.57-5.9,6-15.64,7.4-32.21,10.45-47.41C164.7,495.6,165.6,476.76,163.86,458Zm-60.63-9.06c-.73,5.38-3.74,14.51-10.38,14.51-2.65,0-4.09-3.47-4.84-5.5-1.33-3.58-1.05-7.79-.54-11.51.73-5.38,3.74-14.52,10.38-14.52,2.65,0,4.09,3.48,4.84,5.5C104,441,103.74,445.19,103.23,448.92Zm40.2,3.21c-.73,5.38-3.75,14.52-10.39,14.52-2.65,0-4.09-3.48-4.84-5.5-1.33-3.59-1-7.79-.54-11.52.73-5.38,3.74-14.51,10.38-14.51,2.65,0,4.09,3.47,4.84,5.5C144.21,444.2,143.93,448.41,143.43,452.13Z" transform="translate(-19 -376.41)"/><path class="cls-1" d="M316.15,528.92a34.4,34.4,0,0,1-14,11.7,41.42,41.42,0,0,1-16.75,3.51q-26,0-40.07-13.84t-14.1-40a85.79,85.79,0,0,1,4.61-28.2,72.65,72.65,0,0,1,13.25-23.49,62.49,62.49,0,0,1,48.78-22.13A76.38,76.38,0,0,1,318,419a47.75,47.75,0,0,1,16.4,7.86,38.16,38.16,0,0,1,11.11,13.42q4.09,8.12,4.1,19.39H322.81q-.51-11.28-7-16T298,439a33.21,33.21,0,0,0-17.86,4.7,39.6,39.6,0,0,0-12.48,12.13,56,56,0,0,0-7.26,16.57,70.65,70.65,0,0,0-2.39,17.86,43.09,43.09,0,0,0,1.62,12,29.94,29.94,0,0,0,5,10,23.85,23.85,0,0,0,8.54,6.92,28.22,28.22,0,0,0,12.56,2.56,39.87,39.87,0,0,0,13.25-2,30,30,0,0,0,9.56-5.39,28.85,28.85,0,0,0,6.67-8.28,55,55,0,0,0,4.36-10.68h-28.2l4.27-20h51.78l-14,66H316.49V528.92Z" transform="translate(-19 -376.41)"/><path class="cls-1" d="M406.71,419.38l-9.91,46.83h49.39l9.91-46.83h27l-25.81,122h-27l11.11-52.63H392l-11.11,52.63H354.08l25.63-122Z" transform="translate(-19 -376.41)"/><path class="cls-1" d="M492.15,462.1a72.65,72.65,0,0,1,13.25-23.49,62.49,62.49,0,0,1,48.78-22.13,71.08,71.08,0,0,1,22.39,3.33,43.57,43.57,0,0,1,27.94,26.4,61.29,61.29,0,0,1,3.84,22.56,92.42,92.42,0,0,1-4.44,28.71A74.21,74.21,0,0,1,591,521.57a61,61,0,0,1-20.85,16.49q-12.39,6.06-28.45,6.07-26,0-40.07-13.84t-14.1-40A85.79,85.79,0,0,1,492.15,462.1ZM516,502.26a29.94,29.94,0,0,0,5,10,23.76,23.76,0,0,0,8.54,6.92,28.19,28.19,0,0,0,12.56,2.56,31.28,31.28,0,0,0,17.26-4.7,41.45,41.45,0,0,0,12.3-12.13,56.24,56.24,0,0,0,7.44-16.49,67.22,67.22,0,0,0,2.47-17.77,49.49,49.49,0,0,0-1.45-12.22,27.5,27.5,0,0,0-4.7-10A23.57,23.57,0,0,0,567,441.6,28.09,28.09,0,0,0,554.35,439a33.18,33.18,0,0,0-17.85,4.7A39.6,39.6,0,0,0,524,455.87a55.77,55.77,0,0,0-7.26,16.57,70.2,70.2,0,0,0-2.39,17.86A43.09,43.09,0,0,0,516,502.26Z" transform="translate(-19 -376.41)"/><path class="cls-1" d="M642,511.75a16.17,16.17,0,0,0,5.46,6.92,23.28,23.28,0,0,0,8.55,3.67,49.18,49.18,0,0,0,10.76,1.11,33.93,33.93,0,0,0,8.21-1,26.33,26.33,0,0,0,7.43-3.08,17.41,17.41,0,0,0,5.47-5.3,14,14,0,0,0,2.13-7.86,10,10,0,0,0-2.73-7.26,24,24,0,0,0-7.09-4.87,62.89,62.89,0,0,0-9.91-3.59q-5.56-1.53-11.2-3.25a92.24,92.24,0,0,1-11.27-4.1A38.44,38.44,0,0,1,638,477a28.36,28.36,0,0,1-7-9.23,30.41,30.41,0,0,1-2.64-13.32q0-10.26,4.27-17.43a35.68,35.68,0,0,1,11.11-11.71,48.93,48.93,0,0,1,15.46-6.66,72.32,72.32,0,0,1,17.52-2.14,70.38,70.38,0,0,1,17.68,2.14,39.87,39.87,0,0,1,14.53,6.92,34.38,34.38,0,0,1,9.91,12.21q3.67,7.44,3.67,18H697a19,19,0,0,0-1.45-8.63,14.74,14.74,0,0,0-4.62-5.72,18.6,18.6,0,0,0-7.09-3.16,38.7,38.7,0,0,0-8.71-.94,38.23,38.23,0,0,0-7.61.77,22.16,22.16,0,0,0-6.92,2.56,14.48,14.48,0,0,0-4.95,4.7,12.9,12.9,0,0,0-1.88,7.18,9.58,9.58,0,0,0,3.33,7.43,28,28,0,0,0,8,4.95,56.54,56.54,0,0,0,9.66,3.08l8,1.79A102.86,102.86,0,0,1,696,474.15a35.51,35.51,0,0,1,10.34,6.41,26.66,26.66,0,0,1,6.75,9.57A35.35,35.35,0,0,1,715.5,504q0,10.93-4.53,18.63a38.31,38.31,0,0,1-11.62,12.47,48.58,48.58,0,0,1-16,6.92,74.83,74.83,0,0,1-17.6,2.14q-25.63,0-38.19-10.43T615,500.9h25.46A24.06,24.06,0,0,0,642,511.75Z" transform="translate(-19 -376.41)"/><path class="cls-1" d="M734.12,441.94l4.78-22.56H840.75L836,441.94H799.4l-20.85,99.45h-27l20.85-99.45Z" transform="translate(-19 -376.41)"/><path class="cls-1" d="M939,419.38l9.4,88.35h.35l47-88.35h37.42l-25.8,122H982.24l22.21-97.06h-.34L952.5,541.39H932l-11.79-97.06h-.34l-18.29,97.06H876.29l25.63-122Z" transform="translate(-19 -376.41)"/><path class="cls-1" d="M1042.73,462.1A72.81,72.81,0,0,1,1056,438.61a62.49,62.49,0,0,1,48.79-22.13,71.06,71.06,0,0,1,22.38,3.33,43.57,43.57,0,0,1,27.94,26.4,61.07,61.07,0,0,1,3.85,22.56,92.42,92.42,0,0,1-4.44,28.71,74.42,74.42,0,0,1-12.91,24.09,60.88,60.88,0,0,1-20.84,16.49q-12.39,6.06-28.45,6.07-26,0-40.08-13.84t-14.09-40A85.53,85.53,0,0,1,1042.73,462.1Zm23.84,40.16a29.92,29.92,0,0,0,5,10,23.8,23.8,0,0,0,8.55,6.92,28.19,28.19,0,0,0,12.56,2.56,31.3,31.3,0,0,0,17.26-4.7,41.69,41.69,0,0,0,12.3-12.13,56.21,56.21,0,0,0,7.43-16.49,67.24,67.24,0,0,0,2.48-17.77,50,50,0,0,0-1.45-12.22,27.66,27.66,0,0,0-4.7-10,23.75,23.75,0,0,0-8.37-6.83,28.12,28.12,0,0,0-12.65-2.56,33.21,33.21,0,0,0-17.86,4.7,39.57,39.57,0,0,0-12.47,12.13,55.51,55.51,0,0,0-7.26,16.57,70.23,70.23,0,0,0-2.4,17.86A42.72,42.72,0,0,0,1066.57,502.26Z" transform="translate(-19 -376.41)"/><path class="cls-1" d="M1174,441.94l4.78-22.56H1280.6l-4.79,22.56h-36.57l-20.85,99.45h-27l20.84-99.45Z" transform="translate(-19 -376.41)"/><path class="cls-1" d="M1321.26,419.38l-25.8,122h-26.83l25.63-122Z" transform="translate(-19 -376.41)"/><path class="cls-1" d="M1330.66,462.1a72.81,72.81,0,0,1,13.24-23.49,62.49,62.49,0,0,1,48.79-22.13,71.16,71.16,0,0,1,22.39,3.33,44.77,44.77,0,0,1,17.08,10,45.26,45.26,0,0,1,10.86,16.4,61.29,61.29,0,0,1,3.84,22.56,92.42,92.42,0,0,1-4.44,28.71,74.59,74.59,0,0,1-12.9,24.09,61,61,0,0,1-20.85,16.49q-12.39,6.06-28.45,6.07-26,0-40.08-13.84t-14.09-40A85.53,85.53,0,0,1,1330.66,462.1Zm23.84,40.16a29.92,29.92,0,0,0,5,10,23.88,23.88,0,0,0,8.55,6.92,28.19,28.19,0,0,0,12.56,2.56,31.3,31.3,0,0,0,17.26-4.7,41.57,41.57,0,0,0,12.3-12.13,56.21,56.21,0,0,0,7.43-16.49,67.24,67.24,0,0,0,2.48-17.77,49.49,49.49,0,0,0-1.45-12.22,27.66,27.66,0,0,0-4.7-10,23.75,23.75,0,0,0-8.37-6.83,28.12,28.12,0,0,0-12.65-2.56,33.24,33.24,0,0,0-17.86,4.7,39.57,39.57,0,0,0-12.47,12.13,55.51,55.51,0,0,0-7.26,16.57,70.2,70.2,0,0,0-2.39,17.86A43.09,43.09,0,0,0,1354.5,502.26Z" transform="translate(-19 -376.41)"/><path class="cls-1" d="M1505.47,419.38l33.15,86.81h.34l17.43-86.81H1581l-25.8,122h-26.83l-33.49-85.61h-.34l-17.43,85.61h-24.95l25.63-122Z" transform="translate(-19 -376.41)"/></svg>